# xmcd
#
# Track frame offsets: 
#        150
#        15382
#        34132
#        50665
#        74300
#        89507
#        104952
#        121192
#        133475
#        146957
#        160252
#        172900
#        187707
#
# Disc length: 2555 seconds
#
# Revision: 2
# Processed by: cddbd v1.5.2PL0 Copyright (c) Steve Scherf et al.
# Submitted via: ExactAudioCopy v0.99pb5
#
DISCID=bb09f90d
DTITLE=Kauko Röyhkä and Narttu - Joko-Tai (1990)
DYEAR=1990
DGENRE=Rock
TTITLE0=Suuri Silmä
TTITLE1=Tulit Vastaan Mua
TTITLE2=Bertil-Gigolon Tunnustuksia
TTITLE3=Katolla
TTITLE4=Joko-Tai
TTITLE5=Edgar Allan Poe
TTITLE6=Antero Holm
TTITLE7=Manaan Pahan Olon
TTITLE8=Ollaan Niin Kuin Haluttais Olla
TTITLE9=Eno Ja Hänen Omatuntonsa
TTITLE10=Liikennepuistossa
TTITLE11=Talvella
TTITLE12=Kulkukoira
EXTD=
EXTT0=
EXTT1=
EXTT2=
EXTT3=
EXTT4=
EXTT5=
EXTT6=
EXTT7=
EXTT8=
EXTT9=
EXTT10=
EXTT11=
EXTT12=
PLAYORDER=
